<svg xmlns="http://www.w3.org/2000/svg" xmlns:xlink="http://www.w3.org/1999/xlink" width="29.423" height="29.425" viewBox="0 0 29.423 29.425">
  <defs>
    <clipPath id="clip-path">
      <rect id="Rectangle_570" data-name="Rectangle 570" width="29.423" height="29.425" transform="translate(0 0)" fill="none"/>
    </clipPath>
  </defs>
  <g id="Group_1598" data-name="Group 1598" transform="translate(0 0)">
    <g id="Group_1597" data-name="Group 1597" clip-path="url(#clip-path)">
      <path id="Path_67356" data-name="Path 67356" d="M17.65,11.774h.28q5.484,0,10.968,0c.175,0,.247.039.28.221a15.217,15.217,0,0,1,0,5.442c-.032.179-.1.223-.278.223q-5.484-.009-10.969-.005H17.65v.261q0,5.495,0,10.988c0,.175-.038.245-.221.278a15.073,15.073,0,0,1-5.461,0c-.166-.03-.2-.093-.2-.252q.006-5.493,0-10.988v-.282h-.26q-5.494,0-10.988,0c-.175,0-.247-.039-.28-.221a15.217,15.217,0,0,1,0-5.442c.032-.179.1-.223.278-.222q5.484.007,10.969,0h.281v-.261q0-5.494,0-10.988c0-.174.038-.245.221-.278a15.068,15.068,0,0,1,5.46.005c.167.03.2.093.2.252q-.006,5.493,0,10.988Z" fill="#e30020"/>
      <path id="Path_67357" data-name="Path 67357" d="M19.635,20.475,26.287,23.8a14.81,14.81,0,0,1-6.652,4.783Z" fill="#002082"/>
      <path id="Path_67358" data-name="Path 67358" d="M19.638.843a14.8,14.8,0,0,1,6.649,4.781L19.638,8.948Z" fill="#002082"/>
      <path id="Path_67359" data-name="Path 67359" d="M9.8,20.472v8.113A14.787,14.787,0,0,1,3.137,23.8L9.8,20.472" fill="#002082"/>
      <path id="Path_67360" data-name="Path 67360" d="M9.791.841v8.11L3.137,5.624A14.8,14.8,0,0,1,9.791.841" fill="#002082"/>
      <path id="Path_67361" data-name="Path 67361" d="M20.246,9.758,26.9,6.431,27.882,8.1c-.066.041-.107.071-.151.093q-1.526.763-3.051,1.524a.69.69,0,0,1-.3.081c-1.347.006-2.693,0-4.04,0-.03,0-.061,0-.092,0l-.007-.039" fill="#e30020"/>
      <path id="Path_67362" data-name="Path 67362" d="M2.522,22.994l-.987-1.682L3.16,20.5c.532-.266,1.063-.533,1.6-.794a.656.656,0,0,1,.278-.075q2.03-.008,4.059,0a.116.116,0,0,1,.089.039l-6.66,3.331" fill="#e30020"/>
      <path id="Path_67363" data-name="Path 67363" d="M1.527,8.131,4.835,9.785H.827c.235-.555.464-1.1.7-1.654" fill="#e30020"/>
      <path id="Path_67364" data-name="Path 67364" d="M27.9,21.294l-3.259-1.629.007-.029H28.6c-.235.556-.463,1.093-.7,1.658" fill="#e30020"/>
    </g>
  </g>
</svg>
