<svg id="Group_1601" data-name="Group 1601" xmlns="http://www.w3.org/2000/svg" xmlns:xlink="http://www.w3.org/1999/xlink" width="19.115" height="19.087" viewBox="0 0 19.115 19.087">
  <defs>
    <clipPath id="clip-path">
      <rect id="Rectangle_572" data-name="Rectangle 572" width="19.115" height="19.087" fill="#1e5374"/>
    </clipPath>
  </defs>
  <g id="Group_1601-2" data-name="Group 1601" clip-path="url(#clip-path)">
    <path id="Path_67365" data-name="Path 67365" d="M19.114,9.493c-.026,1.35-.041,2.7-.083,4.05a6.05,6.05,0,0,1-.763,2.929A4.886,4.886,0,0,1,14.627,18.9a16.777,16.777,0,0,1-2.286.161q-2.464.04-4.93.014a24.4,24.4,0,0,1-2.7-.136,4.966,4.966,0,0,1-4.53-4.354,17.315,17.315,0,0,1-.158-2.324Q-.016,9.891.01,7.519A27.384,27.384,0,0,1,.144,4.763,4.961,4.961,0,0,1,2.672.783,5.413,5.413,0,0,1,5.034.094C5.952.036,6.873,0,7.793,0q2.866,0,5.731.057a5.915,5.915,0,0,1,3.159.878,4.884,4.884,0,0,1,2.231,3.509,16.964,16.964,0,0,1,.159,2.136c.026.97.006,1.942.006,2.913h.035M1.765,12.469a16.609,16.609,0,0,0,.132,1.84A3.283,3.283,0,0,0,2.976,16.4a3.617,3.617,0,0,0,2.238.862c.967.063,1.938.086,2.908.1,1.219.013,2.439,0,3.659-.011.709-.009,1.418-.033,2.125-.083a3.822,3.822,0,0,0,1.848-.582,3.411,3.411,0,0,0,1.518-2.773c.068-.879.088-1.764.1-2.646.012-1.419.013-2.838-.014-4.256a18.331,18.331,0,0,0-.159-2.323,3.137,3.137,0,0,0-2.7-2.755,17.908,17.908,0,0,0-2.525-.185c-1.605-.028-3.211-.023-4.817,0a22.41,22.41,0,0,0-2.343.145A3.228,3.228,0,0,0,2.616,3.072,3.814,3.814,0,0,0,1.822,5.4c-.058,1.379-.078,6.1-.057,7.072" transform="translate(0 0)" fill="#1e5374"/>
    <path id="Path_67366" data-name="Path 67366" d="M134.114,128.858a4.909,4.909,0,1,1-4.8-4.916,4.9,4.9,0,0,1,4.8,4.916m-1.737,0a3.175,3.175,0,1,0-3.2,3.169,3.176,3.176,0,0,0,3.2-3.169" transform="translate(-119.654 -119.312)" fill="#1e5374"/>
    <path id="Path_67367" data-name="Path 67367" d="M362.619,90.49a1.127,1.127,0,0,1-1.144-1.145,1.145,1.145,0,1,1,2.29.006,1.12,1.12,0,0,1-1.147,1.139" transform="translate(-347.974 -84.904)" fill="#1e5374"/>
  </g>
</svg>
