<svg xmlns="http://www.w3.org/2000/svg" width="23" height="23" viewBox="0 0 23 23">
  <g id="Circle_Button_" data-name="Circle Button " transform="translate(0.419)">
    <g id="Icon_" data-name="Icon " transform="translate(0.001 0)">
      <rect id="Area_ICON:feather_twitter_SIZE:MEDIUM_STATE:DEFAULT_STYLE:STYLE3_" data-name="Area [ICON:feather/twitter][SIZE:MEDIUM][STATE:DEFAULT][STYLE:STYLE3]" width="23" height="23" transform="translate(-0.42)" fill="#1e5374" opacity="0"/>
      <g id="Icon" transform="translate(0.516 3.089)">
        <path id="Path" d="M21.939,2.5a10.47,10.47,0,0,1-3.013,1.468,4.3,4.3,0,0,0-7.54,2.878v.959A10.228,10.228,0,0,1,2.752,3.46s-3.837,8.634,4.8,12.472A11.165,11.165,0,0,1,.833,17.851c8.634,4.8,19.187,0,19.187-11.032a4.3,4.3,0,0,0-.077-.8A7.4,7.4,0,0,0,21.939,2.5Z" transform="translate(-0.833 -2.491)" fill="#1e5374"/>
      </g>
    </g>
  </g>
</svg>
