<svg xmlns="http://www.w3.org/2000/svg" width="66" height="66" viewBox="0 0 66 66">
  <g id="Group_1686" data-name="Group 1686" transform="translate(-1794 -6910)">
    <rect id="Rectangle_49" data-name="Rectangle 49" width="66" height="66" rx="19" transform="translate(1794 6910)" fill="#3875e6"/>
    <path id="Path_64" data-name="Path 64" d="M3333.145,526.534c-.022.093-.042.186-.067.278a1.443,1.443,0,0,1-2.326.707c-.077-.066-.148-.139-.22-.211l-5.891-5.893c-.046-.046-.094-.09-.174-.165v.253q0,9.63,0,19.259a1.45,1.45,0,1,1-2.9.128c0-.079,0-.158,0-.237v-19.4c-.076.07-.124.112-.168.157q-3,3-6,6a1.444,1.444,0,0,1-2.143-1.936c.052-.059.108-.115.165-.171q4.166-4.168,8.334-8.335a4.476,4.476,0,0,1,.561-.483,2.107,2.107,0,0,1,.428-.182h.542a.9.9,0,0,0,.1.041,1.979,1.979,0,0,1,.875.607q4.062,4.073,8.134,8.136a2.125,2.125,0,0,1,.742,1.211Z" transform="translate(-1495.906 6413.697)" fill="#fff"/>
  </g>
</svg>
