<svg xmlns="http://www.w3.org/2000/svg" xmlns:xlink="http://www.w3.org/1999/xlink" width="178" height="178" viewBox="0 0 178 178">
  <defs>
    <filter id="Rectangle_587" x="0" y="0" width="178" height="178" filterUnits="userSpaceOnUse">
      <feOffset dx="20" dy="23" input="SourceAlpha"/>
      <feGaussianBlur stdDeviation="13" result="blur"/>
      <feFlood flood-opacity="0.051"/>
      <feComposite operator="in" in2="blur"/>
      <feComposite in="SourceGraphic"/>
    </filter>
    <clipPath id="clip-path">
      <rect id="Rectangle_590" data-name="Rectangle 590" width="35.455" height="35.467" fill="#ff16c4"/>
    </clipPath>
  </defs>
  <g id="Group_1643" data-name="Group 1643" transform="translate(-892 -931)">
    <g transform="matrix(1, 0, 0, 1, 892, 931)" filter="url(#Rectangle_587)">
      <rect id="Rectangle_587-2" data-name="Rectangle 587" width="100" height="100" rx="50" transform="translate(19 16)" fill="#fff"/>
    </g>
    <g id="Group_1642" data-name="Group 1642" transform="translate(943 979)">
      <g id="Group_1641" data-name="Group 1641" clip-path="url(#clip-path)">
        <path id="Path_67394" data-name="Path 67394" d="M24.643,17.672l2.9,2.9q3.144,3.143,6.285,6.288a4.94,4.94,0,0,1,.838,6.324,4.883,4.883,0,0,1-7.453.972c-2.269-2.162-4.45-4.416-6.667-6.63-.931-.929-1.857-1.862-2.806-2.813-.169.161-.306.285-.437.416q-4.379,4.378-8.757,8.757a4.788,4.788,0,0,1-5.032,1.346,4.919,4.919,0,0,1-2.409-7.8,9.865,9.865,0,0,1,.7-.754q4.249-4.254,8.5-8.5a5.663,5.663,0,0,1,.477-.381c-.187-.2-.307-.337-.436-.466q-4.378-4.38-8.756-8.759a4.928,4.928,0,1,1,6.8-7.133c2.987,2.947,5.942,5.927,8.912,8.893.131.131.267.255.438.417,1.022-1.025,2.022-2.03,3.025-3.033,2.083-2.083,4.156-4.176,6.256-6.242A4.719,4.719,0,0,1,32.041.267a4.643,4.643,0,0,1,3.312,3.777,4.841,4.841,0,0,1-1.492,4.531q-4.368,4.353-8.725,8.717a5.152,5.152,0,0,1-.494.381" transform="translate(0 0)" fill="#ff16c4"/>
      </g>
    </g>
  </g>
</svg>
