<svg xmlns="http://www.w3.org/2000/svg" xmlns:xlink="http://www.w3.org/1999/xlink" width="316.067" height="101.917" viewBox="0 0 316.067 101.917">
  <defs>
    <clipPath id="clip-path">
      <rect id="Rectangle_33" data-name="Rectangle 33" width="118.193" height="39.193" fill="#322c56"/>
    </clipPath>
    <clipPath id="clip-path-2">
      <rect id="Rectangle_35" data-name="Rectangle 35" width="221.327" height="40.537" fill="#322c56"/>
    </clipPath>
    <clipPath id="clip-path-3">
      <rect id="Rectangle_36" data-name="Rectangle 36" width="83.423" height="83.624" fill="#707070"/>
    </clipPath>
  </defs>
  <g id="Group_41" data-name="Group 41" transform="translate(-0.605 -0.263)">
    <g id="Group_37" data-name="Group 37" transform="translate(0.605 0.263)">
      <g id="Group_38" data-name="Group 38" transform="translate(94.74 0)">
        <g id="Group_37-2" data-name="Group 37" transform="translate(0 0)" clip-path="url(#clip-path)">
          <path id="Path_70" data-name="Path 70" d="M32.754,28.722c0,6.662-4.927,10.47-14.725,10.47H0V0H16.909c8.734,0,13.774,3.695,13.774,10.078a9.1,9.1,0,0,1-5.991,8.9c5.039,1.12,8.063,4.423,8.063,9.742M4.143,3.415V17.636H16.629c6.271,0,9.91-2.408,9.91-7.111S22.9,3.415,16.629,3.415ZM28.61,28.387c0-5.1-3.751-7.335-10.638-7.335H4.143V35.777h13.83c6.887,0,10.638-2.24,10.638-7.39" transform="translate(0 0)" fill="#322c56"/>
          <rect id="Rectangle_32" data-name="Rectangle 32" width="4.143" height="39.193" transform="translate(42.217)" fill="#322c56"/>
          <path id="Path_71" data-name="Path 71" d="M104.542,0h4.143V35.609h21.948v3.583H104.542Z" transform="translate(-45.417 0)" fill="#322c56"/>
          <path id="Path_72" data-name="Path 72" d="M162.852,0H167V35.609h21.948v3.583H162.852Z" transform="translate(-70.75 0)" fill="#322c56"/>
        </g>
      </g>
      <g id="Group_39" data-name="Group 39" transform="translate(94.74 42.982)">
        <g id="Group_39-2" data-name="Group 39" transform="translate(0 0)" clip-path="url(#clip-path-2)">
          <path id="Path_73" data-name="Path 73" d="M0,36,3.079,29.17a23.049,23.049,0,0,0,12.933,4.087c5.375,0,7.559-1.792,7.559-4.2,0-7.335-22.788-2.3-22.788-16.853C.784,5.543,6.159,0,17.3,0A26.294,26.294,0,0,1,30.906,3.471l-2.8,6.887A22.137,22.137,0,0,0,17.245,7.279C11.87,7.279,9.8,9.294,9.8,11.758,9.8,18.98,32.586,14,32.586,28.387c0,6.551-5.43,12.15-16.629,12.15C9.742,40.537,3.471,38.689,0,36" transform="translate(0 0)" fill="#322c56"/>
          <path id="Path_74" data-name="Path 74" d="M72.337,8.579H59.795V1.188H93.949V8.579H81.407v31.8h-9.07Z" transform="translate(-25.977 -0.516)" fill="#322c56"/>
          <path id="Path_75" data-name="Path 75" d="M127.017,23.136V1.187h9.07V22.8c0,7.447,3.247,10.527,8.734,10.527,5.543,0,8.734-3.08,8.734-10.527V1.187h8.958V23.136c0,11.534-6.607,17.917-17.748,17.917s-17.749-6.383-17.749-17.917" transform="translate(-55.181 -0.516)" fill="#322c56"/>
          <path id="Path_76" data-name="Path 76" d="M205.621,1.187h17.8c12.822,0,21.612,7.727,21.612,19.6s-8.79,19.6-21.612,19.6h-17.8Zm17.357,31.747c7.783,0,12.878-4.647,12.878-12.149s-5.1-12.15-12.878-12.15h-8.287v24.3Z" transform="translate(-89.33 -0.516)" fill="#322c56"/>
          <rect id="Rectangle_34" data-name="Rectangle 34" width="9.07" height="39.193" transform="translate(162.539 0.672)" fill="#322c56"/>
          <path id="Path_77" data-name="Path 77" d="M315.509,20.268C315.509,8.623,324.579,0,336.953,0,349.271,0,358.4,8.567,358.4,20.268s-9.126,20.268-21.444,20.268c-12.374,0-21.444-8.623-21.444-20.268m33.706,0c0-7.447-5.263-12.542-12.262-12.542s-12.261,5.1-12.261,12.542,5.263,12.542,12.261,12.542,12.262-5.1,12.262-12.542" transform="translate(-137.07 0)" fill="#322c56"/>
        </g>
      </g>
      <g id="Group_42" data-name="Group 42" transform="translate(0 0)" clip-path="url(#clip-path-3)">
        <path id="Path_97" data-name="Path 97" d="M39.847,0A39.847,39.847,0,0,0,0,39.847H39.847Z" transform="translate(43.576)" fill="#ff824a"/>
        <path id="Path_98" data-name="Path 98" d="M0,190.81a39.847,39.847,0,0,0,39.847-39.847H0Z" transform="translate(43.576 -107.186)" fill="#ffc41a"/>
        <path id="Path_99" data-name="Path 99" d="M190.117,190.811a39.847,39.847,0,0,0-39.847-39.847v39.847Z" transform="translate(-150.102 -107.187)" fill="#ff16c4"/>
        <path id="Path_100" data-name="Path 100" d="M190.117,19.923a19.924,19.924,0,1,0-19.924,19.924,19.924,19.924,0,0,0,19.924-19.924" transform="translate(-150.102 0.001)" fill="#2e6aef"/>
      </g>
    </g>
    <g id="Group_40" data-name="Group 40" transform="translate(70.118 93.405)">
      <path id="Path_78" data-name="Path 78" d="M48.07,105.437a3.247,3.247,0,0,1,3.4-3.283,3.172,3.172,0,0,1,2.44,1l-.6.577a2.377,2.377,0,0,0-1.807-.761,2.467,2.467,0,1,0,0,4.933,2.386,2.386,0,0,0,1.807-.77l.6.578a3.187,3.187,0,0,1-2.449,1.008,3.246,3.246,0,0,1-3.393-3.283" transform="translate(-48.07 -101.705)" fill="#707070"/>
      <path id="Path_79" data-name="Path 79" d="M64.087,103.933v4.86h-.834v-.734a1.977,1.977,0,0,1-1.651.788,1.909,1.909,0,0,1-2.091-2.118v-2.8h.88v2.7c0,.954.477,1.43,1.311,1.43a1.43,1.43,0,0,0,1.5-1.614v-2.512Z" transform="translate(-49.013 -101.852)" fill="#707070"/>
      <path id="Path_80" data-name="Path 80" d="M69.66,108.275l.367-.7a3.114,3.114,0,0,0,1.706.5c.816,0,1.155-.247,1.155-.661,0-1.091-3.072-.147-3.072-2.081,0-.871.78-1.458,2.027-1.458a3.547,3.547,0,0,1,1.77.439l-.376.7a2.537,2.537,0,0,0-1.4-.385c-.771,0-1.146.284-1.146.67,0,1.146,3.081.21,3.081,2.1,0,.88-.807,1.439-2.1,1.439a3.509,3.509,0,0,1-2.008-.568" transform="translate(-49.85 -101.848)" fill="#707070"/>
      <path id="Path_81" data-name="Path 81" d="M82.01,108.413a1.658,1.658,0,0,1-1.063.339,1.386,1.386,0,0,1-1.541-1.521v-2.669H78.58v-.724h.826v-1.063h.88v1.063h1.394v.724H80.286v2.632a.716.716,0,0,0,.762.816,1.114,1.114,0,0,0,.687-.228Z" transform="translate(-50.586 -101.756)" fill="#707070"/>
      <path id="Path_82" data-name="Path 82" d="M86.811,106.36a2.527,2.527,0,1,1,2.532,2.485,2.418,2.418,0,0,1-2.532-2.485m4.163,0a1.639,1.639,0,1,0-1.631,1.715,1.594,1.594,0,0,0,1.631-1.715" transform="translate(-51.264 -101.848)" fill="#707070"/>
      <path id="Path_83" data-name="Path 83" d="M105.72,105.992v2.8h-.881v-2.7c0-.953-.459-1.42-1.256-1.42a1.41,1.41,0,0,0-1.458,1.613v2.5h-.881v-2.7c0-.953-.459-1.42-1.256-1.42a1.411,1.411,0,0,0-1.458,1.613v2.5h-.881v-4.86h.844v.724a1.971,1.971,0,0,1,1.678-.77,1.8,1.8,0,0,1,1.687.9,2.19,2.19,0,0,1,1.871-.9,1.864,1.864,0,0,1,1.99,2.109" transform="translate(-52.158 -101.848)" fill="#707070"/>
      <path id="Path_84" data-name="Path 84" d="M112.05,102.241a.579.579,0,0,1,.6-.576.571.571,0,0,1,.6.559.6.6,0,0,1-1.193.017m.156,1.5h.881v4.86h-.881Z" transform="translate(-53.345 -101.665)" fill="#707070"/>
      <path id="Path_85" data-name="Path 85" d="M122.572,108.068v.725H118.5v-.569l2.87-3.567h-2.815v-.724H122.5v.578l-2.871,3.557Z" transform="translate(-53.877 -101.852)" fill="#707070"/>
      <path id="Path_86" data-name="Path 86" d="M132.474,106.651H128.53a1.647,1.647,0,0,0,1.761,1.422,1.815,1.815,0,0,0,1.4-.586l.487.568a2.65,2.65,0,0,1-4.531-1.7,2.38,2.38,0,0,1,2.439-2.476,2.343,2.343,0,0,1,2.4,2.5c0,.072-.009.184-.018.265m-3.944-.632h3.118a1.569,1.569,0,0,0-3.118,0" transform="translate(-54.632 -101.848)" fill="#707070"/>
      <path id="Path_87" data-name="Path 87" d="M149.157,103.933l-2.356,5.346c-.431,1.028-.99,1.349-1.733,1.349a1.823,1.823,0,0,1-1.247-.45l.375-.66a1.25,1.25,0,0,0,.872.358c.422,0,.687-.193.926-.753l.156-.339L144,103.933h.917l1.7,3.888,1.679-3.888Z" transform="translate(-55.965 -101.852)" fill="#707070"/>
      <path id="Path_88" data-name="Path 88" d="M153.9,106.36a2.527,2.527,0,1,1,2.532,2.485,2.418,2.418,0,0,1-2.532-2.485m4.164,0a1.639,1.639,0,1,0-1.632,1.715,1.6,1.6,0,0,0,1.632-1.715" transform="translate(-56.796 -101.848)" fill="#707070"/>
      <path id="Path_89" data-name="Path 89" d="M169.266,103.933v4.86h-.834v-.734a1.977,1.977,0,0,1-1.651.788,1.909,1.909,0,0,1-2.091-2.118v-2.8h.881v2.7c0,.954.476,1.43,1.31,1.43a1.43,1.43,0,0,0,1.5-1.614v-2.512Z" transform="translate(-57.686 -101.852)" fill="#707070"/>
      <path id="Path_90" data-name="Path 90" d="M178.122,103.883v.852a1.549,1.549,0,0,0-.2-.009,1.45,1.45,0,0,0-1.531,1.641v2.421h-.881v-4.86h.844v.816a1.854,1.854,0,0,1,1.77-.862" transform="translate(-58.578 -101.848)" fill="#707070"/>
      <path id="Path_91" data-name="Path 91" d="M189.63,108.275l.366-.7a3.117,3.117,0,0,0,1.707.5c.815,0,1.155-.247,1.155-.661,0-1.091-3.072-.147-3.072-2.081,0-.871.78-1.458,2.026-1.458a3.548,3.548,0,0,1,1.771.439l-.377.7a2.535,2.535,0,0,0-1.4-.385c-.771,0-1.146.284-1.146.67,0,1.146,3.082.21,3.082,2.1,0,.88-.807,1.439-2.1,1.439a3.5,3.5,0,0,1-2.008-.568" transform="translate(-59.742 -101.848)" fill="#707070"/>
      <path id="Path_92" data-name="Path 92" d="M201.979,108.413a1.659,1.659,0,0,1-1.064.339,1.386,1.386,0,0,1-1.541-1.521v-2.669h-.825v-.724h.825v-1.063h.88v1.063h1.395v.724h-1.395v2.632a.716.716,0,0,0,.762.816,1.113,1.113,0,0,0,.687-.228Z" transform="translate(-60.477 -101.756)" fill="#707070"/>
      <path id="Path_93" data-name="Path 93" d="M211.976,103.933v4.86h-.834v-.734a1.977,1.977,0,0,1-1.651.788,1.909,1.909,0,0,1-2.091-2.118v-2.8h.881v2.7c0,.954.476,1.43,1.31,1.43a1.43,1.43,0,0,0,1.5-1.614v-2.512Z" transform="translate(-61.207 -101.852)" fill="#707070"/>
      <path id="Path_94" data-name="Path 94" d="M222.765,101.814v6.8h-.844v-.77a2.053,2.053,0,0,1-1.732.825,2.48,2.48,0,0,1,0-4.96,2.065,2.065,0,0,1,1.7.779v-2.678Zm-.872,4.375a1.638,1.638,0,1,0-1.631,1.715,1.6,1.6,0,0,0,1.631-1.715" transform="translate(-62.059 -101.677)" fill="#707070"/>
      <path id="Path_95" data-name="Path 95" d="M228.869,102.241a.579.579,0,0,1,.6-.576.57.57,0,0,1,.6.559.6.6,0,0,1-1.193.017m.156,1.5h.881v4.86h-.881Z" transform="translate(-62.977 -101.665)" fill="#707070"/>
      <path id="Path_96" data-name="Path 96" d="M235.339,106.36a2.527,2.527,0,1,1,2.532,2.485,2.418,2.418,0,0,1-2.532-2.485m4.163,0a1.638,1.638,0,1,0-1.631,1.715,1.594,1.594,0,0,0,1.631-1.715" transform="translate(-63.511 -101.848)" fill="#707070"/>
    </g>
  </g>
</svg>
